<svg width="28" height="27" viewBox="0 0 28 27" fill="none" xmlns="http://www.w3.org/2000/svg">
<path d="M19 9C20.9891 9 22.8968 9.79018 24.3033 11.1967C25.7098 12.6032 26.5 14.5109 26.5 16.5V25.25H21.5V16.5C21.5 15.837 21.2366 15.2011 20.7678 14.7322C20.2989 14.2634 19.663 14 19 14C18.337 14 17.7011 14.2634 17.2322 14.7322C16.7634 15.2011 16.5 15.837 16.5 16.5V25.25H11.5V16.5C11.5 14.5109 12.2902 12.6032 13.6967 11.1967C15.1032 9.79018 17.0109 9 19 9V9Z" stroke="#EEE6CE" stroke-width="2" stroke-linecap="round" stroke-linejoin="round"/>
<path d="M6.5 10.25H1.5V25.25H6.5V10.25Z" stroke="#EEE6CE" stroke-width="2" stroke-linecap="round" stroke-linejoin="round"/>
<path d="M4 6.5C5.38071 6.5 6.5 5.38071 6.5 4C6.5 2.61929 5.38071 1.5 4 1.5C2.61929 1.5 1.5 2.61929 1.5 4C1.5 5.38071 2.61929 6.5 4 6.5Z" stroke="#EEE6CE" stroke-width="2" stroke-linecap="round" stroke-linejoin="round"/>
</svg>
