<svg width="96" height="116" viewBox="0 0 96 116" fill="none" xmlns="http://www.w3.org/2000/svg">
<path d="M25.5729 32H71.4271C78.3792 32 84 37.765 84 44.8953V90.1047C84 97.235 78.3792 103 71.4271 103H25.5729C18.6208 103 13 97.235 13 90.1047V44.8953C13 37.765 18.6208 32 25.5729 32Z" fill="#470137"/>
<path d="M49.8997 53.4628L41.0626 68.4178L50.4888 84.2792C50.5477 84.4 50.5772 84.5209 50.5477 84.6417C50.5183 84.7626 50.4005 84.6719 50.2237 84.7021H43.4781C43.0068 84.7021 42.6828 84.6719 42.4766 84.3698C41.858 83.1009 41.2099 81.8622 40.5913 80.5933C39.9727 79.3546 39.2952 78.0857 38.5883 76.7866C37.8813 75.4874 37.1743 74.1883 36.4674 72.859H36.4085C35.7899 74.1581 35.1124 75.4572 34.4349 76.7564C33.7573 78.0555 33.0798 79.3546 32.4318 80.6235C31.7543 81.8924 31.0768 83.1915 30.3993 84.4302C30.2814 84.7324 30.0458 84.7626 29.7218 84.7626H23.2413C23.1234 84.7626 23.0351 84.823 23.0351 84.6719C23.0056 84.5511 23.0351 84.4302 23.094 84.3396L32.255 68.9314L23.3296 53.4326C23.2413 53.3117 23.2118 53.1909 23.2707 53.1305C23.3296 53.0398 23.4475 53.0096 23.5653 53.0096H30.252C30.3993 53.0096 30.5465 53.0398 30.6644 53.07C30.7822 53.1305 30.8706 53.2211 30.9589 53.3419C31.5186 54.6411 32.1667 55.9402 32.8442 57.2393C33.5511 58.5384 34.2287 59.8073 34.9651 61.0762C35.672 62.3452 36.3201 63.6141 36.9387 64.9132H36.9976C37.6162 63.5839 38.2642 62.2847 38.9123 61.0158C39.5603 59.7469 40.2378 58.478 40.9154 57.2091C41.5929 55.9402 42.2409 54.6411 42.889 53.4024C42.9184 53.2815 42.9773 53.1607 43.0657 53.1002C43.1835 53.0398 43.3014 53.0096 43.4486 53.0398H49.664C49.8113 53.0096 49.9586 53.1002 49.9881 53.2513C50.0175 53.2815 49.9586 53.4024 49.8997 53.4628Z" fill="#FF61F6"/>
<path d="M63.5087 85.3366C61.3289 85.3668 59.1491 84.9137 57.1755 83.9771C55.3197 83.1009 53.788 81.6507 52.7275 79.8682C51.6376 78.0253 51.1074 75.7292 51.1074 72.9799C51.0779 70.7442 51.6376 68.5387 52.7275 66.6051C53.8469 64.6413 55.467 63.0098 57.4112 61.9222C59.4731 60.7439 61.9475 60.1699 64.8637 60.1699C65.011 60.1699 65.2172 60.1699 65.4823 60.2001C65.7474 60.2303 66.042 60.2303 66.3955 60.2605V50.7135C66.3955 50.502 66.4839 50.3812 66.6901 50.3812H72.6698C72.8171 50.351 72.9349 50.4718 72.9644 50.5927C72.9644 50.6229 72.9644 50.6531 72.9644 50.6531V79.415C72.9644 79.9589 72.9938 80.5631 73.0233 81.2278C73.0822 81.8622 73.1117 82.4665 73.1411 82.9801C73.1411 83.1916 73.0527 83.3728 72.8465 83.4635C71.3148 84.1281 69.6947 84.6115 68.0451 84.9137C66.5428 85.1856 65.0405 85.3366 63.5087 85.3366ZM66.3955 79.2942V66.0008C66.1304 65.9404 65.8653 65.88 65.6002 65.8498C65.2761 65.8196 64.9521 65.7894 64.6281 65.7894C63.4793 65.7894 62.3305 66.0311 61.2995 66.5749C60.2979 67.0885 59.4437 67.8438 58.7956 68.8106C58.1476 69.7774 57.8236 71.0765 57.8236 72.6475C57.7941 73.7049 57.9708 74.7624 58.3243 75.7594C58.6189 76.5751 59.0607 77.3002 59.6499 77.9044C60.2096 78.4482 60.8871 78.8712 61.6529 79.1129C62.4483 79.3848 63.2731 79.5057 64.0979 79.5057C64.5397 79.5057 64.9521 79.4755 65.3351 79.4453C65.718 79.4755 66.042 79.415 66.3955 79.2942Z" fill="#FF61F6"/>
</svg>
