<svg width="96" height="116" viewBox="0 0 96 116" fill="none" xmlns="http://www.w3.org/2000/svg">
<path d="M52 58H37.0667C29.8501 58 24 52.1797 24 45C24 37.8203 29.8501 32 37.0667 32H52V58Z" fill="#E64A19"/>
<path d="M50 84H37C29.8203 84 24 78.1797 24 71C24 63.8203 29.8203 58 37 58H50V84Z" fill="#7C4DFF"/>
<path d="M37 110C29.8203 110 24 104.18 24 97C24 89.8203 29.8203 84 37 84H50V97C50 104.18 44.1797 110 37 110Z" fill="#66BB6A"/>
<path d="M63 58H50V32H63C70.1797 32 76 37.8203 76 45C76 52.1797 70.1797 58 63 58Z" fill="#FF7043"/>
<path d="M63 84C70.1797 84 76 78.1797 76 71C76 63.8203 70.1797 58 63 58C55.8203 58 50 63.8203 50 71C50 78.1797 55.8203 84 63 84Z" fill="#29B6F6"/>
</svg>
