<svg width="96" height="116" viewBox="0 0 96 116" fill="none" xmlns="http://www.w3.org/2000/svg">
<path d="M84.4 64.2L51.8 31.6C50.8 30.6 49.4 30 48 30C46.6 30 45.2 30.6 44.2 31.6L37.2 38.6L45.4 46.8C46.2 46.4 47 46.2 48 46.2C51.4 46.2 54 48.8 54 52.2C54 53.2 53.8 54 53.4 54.8L61.4 62.8C62.2 62.4 63 62.2 64 62.2C67.4 62.2 70 64.8 70 68.2C70 71.6 67.4 74.2 64 74.2C60.6 74.2 58 71.6 58 68.2C58 67.2 58.2 66.4 58.6 65.6L50.6 57.6C50.4 57.6 50.2 57.8 50 57.8V78.6C52.4 79.4 54 81.6 54 84.2C54 87.6 51.4 90.2 48 90.2C44.6 90.2 42 87.6 42 84.2C42 81.6 43.6 79.4 46 78.6V57.6C43.6 56.8 42 54.6 42 52C42 51 42.2 50.2 42.6 49.4L34.4 41.2L11.6 64.2C10.6 65.2 10 66.6 10 68C10 69.4 10.6 70.8 11.6 71.8L44.2 104.4C45.2 105.4 46.6 106 48 106C49.4 106 50.8 105.4 51.8 104.4L84.4 71.8C85.4 70.8 86 69.4 86 68C86 66.6 85.4 65.2 84.4 64.2Z" fill="#F4511E"/>
</svg>
