<svg width="96" height="116" viewBox="0 0 96 116" fill="none" xmlns="http://www.w3.org/2000/svg">
<path d="M47.3 69.796C45.304 66.578 43.856 63.91 41.85 58.886C38.458 50.4 62.48 42.732 52.74 27.998C56.962 38.176 37.586 44.468 35.786 52.944C34.14 60.74 47.29 69.796 47.3 69.796Z" fill="#F44336"/>
<path d="M47.7561 54.54C47.3721 59.572 52.2141 62.254 52.3541 65.93C52.4661 68.922 49.4601 71.416 49.4601 71.416C49.4601 71.416 54.9161 70.344 56.6181 65.78C58.5081 60.712 52.9501 57.242 53.5221 53.184C54.0561 49.308 65.5841 42.098 65.5841 42.098C65.5841 42.098 48.6221 43.222 47.7561 54.54Z" fill="#F44336"/>
<path d="M64.168 70.11C67.676 69.322 70.634 71.556 70.634 74.13C70.634 79.932 62.592 85.416 62.592 85.416C62.592 85.416 75.042 83.932 75.042 74.406C75.042 68.106 68.928 66.532 64.168 70.11ZM58.258 74.79C58.258 74.79 62.14 72.024 63.174 70.986C53.648 73.008 31.898 73.28 31.898 71.524C31.898 69.906 38.912 68.248 38.912 68.248C38.912 68.248 23.366 68.024 23.366 72.61C23.366 77.39 43.716 77.732 58.258 74.79Z" fill="#1565C0"/>
<path d="M55.87 79.142C46.852 82.14 30.242 81.182 35.162 77.156C32.766 77.156 29.214 79.082 29.214 80.934C29.214 84.648 47.178 87.516 60.474 82.078L55.87 79.142Z" fill="#1565C0"/>
<path d="M37.372 85.478C34.1 85.478 31.982 87.586 31.982 89.122C31.982 93.904 51.502 94.386 59.236 89.532L54.32 86.268C48.542 88.808 34.028 89.158 37.372 85.478Z" fill="#1565C0"/>
<path d="M72.562 93.264C72.562 91.392 70.452 90.51 69.696 90.088C74.152 100.834 25.062 100 25.062 93.656C25.062 92.214 28.676 90.802 32.016 91.47L29.176 89.792C22.52 88.748 18 91.674 18 94.034C18 105.04 72.562 104.51 72.562 93.264Z" fill="#1565C0"/>
<path d="M78 97.208C69.708 105.398 48.682 108.382 27.538 103.322C48.682 112.328 77.9 107.256 78 97.208Z" fill="#1565C0"/>
</svg>
