<svg width="96" height="116" viewBox="0 0 96 116" fill="none" xmlns="http://www.w3.org/2000/svg">
<path d="M15.7209 28C12.4251 28 9.8219 29.7473 8.58955 32.7732C8.19889 33.7072 8.00356 34.698 8 35.7209C7.99645 39.1054 10.177 41.8542 11.4875 43.4985C11.7184 43.7862 11.9244 44.0419 12.141 44.3509L12.7305 45.1322C13.3165 45.8993 13.9842 46.7694 14.1937 47.2062C14.2612 47.4051 14.3536 47.7567 14.4779 48.2007C15.0496 50.2569 16.1151 54.0748 17.8091 56.9798C18.4945 58.1518 19.4534 59.6221 20.146 60.6591C19.6843 62.9711 18.903 67.2329 18.903 69.8219C18.903 74.3677 19.8441 78.0186 21.9004 81.357C22.6604 82.5503 24.9795 86.187 28.9038 86.187C30.296 86.187 32.6116 85.6436 33.2366 82.188C36.0174 85.7786 40.7231 90.2782 47.9964 93.4604C47.9964 93.4604 34.3624 77.5498 31.9652 67.6342C31.9652 67.6342 29.3584 70.2765 27.1423 75.6747C26.4818 74.0091 26.1763 72.1303 26.1763 69.8219C26.1763 67.5419 27.1778 62.4455 27.5685 60.6734L27.9094 59.132L27.0145 57.8322C27.0003 57.8073 25.1677 55.1615 24.0952 53.3218C22.8735 51.2265 21.9714 47.984 21.4884 46.2474C21.2505 45.3986 21.0658 44.7877 20.8918 44.3722C20.2561 42.9942 19.322 41.7832 18.5052 40.7142L18.0506 40.1104C17.8198 39.7802 17.5179 39.3966 17.177 38.9669C16.5128 38.1287 15.2734 36.5732 15.3089 35.5717L15.7138 35.2876L15.7209 35.2734C18.6117 35.2734 22.3372 37.3261 23.74 38.1003C24.1982 38.3525 24.5356 38.523 24.7131 38.6046L25.3453 38.8816L26.5883 38.9243C28.2149 38.9598 33.1549 39.077 36.646 40.4727C43.0138 43.0191 46.5332 45.5655 50.1131 50.2179C58.5656 61.2096 61.6837 75.4403 61.7122 75.5823L62.1667 77.6351L64.1556 78.2814C64.223 78.3063 69.7917 80.1673 74.9804 85.0292C68.4528 86.6451 66.1799 89.8237 66.1799 89.8237C66.1799 89.8237 67.9094 93.1975 76.1808 98.4608C81.1812 101.643 83.9087 103.916 88 108.007C88 108.007 83.9123 98.9154 78.198 91.6704C82.5485 90.2782 87.8935 89.5538 87.8935 89.5538L84.5835 84.9653C79.1356 77.4113 71.8302 73.6006 68.3534 72.1161C67.1459 67.5134 63.4985 55.6907 55.8807 45.7857C51.5195 40.1176 46.8813 36.7259 39.3451 33.7107C34.8845 31.9279 29.5182 31.7148 27.1281 31.658C25.0363 30.5073 20.391 28 15.7209 28ZM30.4949 42.5467C30.4949 42.5467 28.9038 42.5467 27.0855 43.0013L32.0859 49.813C33.4497 48.0018 33.4497 45.8851 33.4497 45.8851C33.4497 45.8851 32.5441 43.4559 30.4949 42.5467Z" fill="#237DB7"/>
</svg>
