<svg width="96" height="116" viewBox="0 0 96 116" fill="none" xmlns="http://www.w3.org/2000/svg">
<path d="M12 40C12 35.582 15.582 32 20 32H76C80.418 32 84 35.582 84 40V96C84 100.418 80.418 104 76 104H20C15.582 104 12 100.418 12 96V40Z" fill="#03A9F4"/>
<path d="M40.032 58.348H36.028V67.216H39.974C41.068 67.216 41.914 66.858 42.514 66.142C43.114 65.426 43.412 64.384 43.412 63.016C43.412 61.596 43.106 60.468 42.494 59.628C41.882 58.788 41.06 58.362 40.032 58.348Z" fill="#020F16"/>
<path d="M18 38V98H78V38H18ZM46.73 69.578C45.078 71.194 42.786 72 39.856 72H36.028V82H30.286V53.562H39.974C42.786 53.562 45.03 54.436 46.702 56.18C48.374 57.924 49.212 60.19 49.212 62.976C49.212 65.762 48.384 67.962 46.73 69.578ZM65.364 80.672C63.946 81.818 62.082 82.39 59.778 82.39C58.228 82.39 56.86 82.088 55.676 81.482C54.492 80.876 53.562 80.032 52.892 78.952C52.222 77.872 51.886 76.706 51.886 75.456H57.14C57.168 76.418 57.39 77.142 57.814 77.624C58.238 78.106 58.93 78.346 59.894 78.346C61.378 78.346 62.12 77.676 62.12 76.334C62.12 75.866 61.896 75.432 61.446 75.036C60.996 74.64 60 74.104 58.45 73.426C56.172 72.502 54.606 71.546 53.752 70.554C52.898 69.562 52.472 68.334 52.472 66.862C52.472 65.012 53.14 63.486 54.474 62.282C55.808 61.078 57.578 60.476 59.776 60.476C62.092 60.476 63.948 61.076 65.342 62.272C66.736 63.468 67.432 65.078 67.432 67.096H61.904C61.904 65.378 61.19 64.518 59.756 64.518C59.17 64.518 58.69 64.7 58.31 65.064C57.93 65.428 57.744 65.938 57.744 66.588C57.744 67.056 57.952 67.47 58.37 67.828C58.788 68.186 59.768 68.698 61.32 69.362C63.574 70.196 65.164 71.124 66.096 72.146C67.028 73.168 67.492 74.494 67.492 76.12C67.492 78.01 66.782 79.526 65.364 80.672Z" fill="#020F16"/>
</svg>
