<svg width="96" height="116" viewBox="0 0 96 116" fill="none" xmlns="http://www.w3.org/2000/svg">
<path d="M48.094 30C44.984 30.01 42.828 30.284 40.222 30.734C32.526 32.074 31.124 34.888 31.124 40.074V48H49.124V52H30.44H21.74C16.468 52 11.854 54.484 10.392 60.438C8.74002 67.272 8.66602 71.552 10.392 78.688C11.702 84.01 14.588 88 19.862 88H27.126V77.792C27.126 71.86 32.498 66 38.654 66H53.126C58.172 66 63.126 62.276 63.126 57.246V40.074C63.126 35.196 59.608 31.548 54.69 30.73C54.812 30.718 51.178 29.988 48.094 30ZM38.126 38C39.768 38 41.126 39.354 41.126 41.004C41.126 42.67 39.768 44 38.126 44C36.452 44 35.126 42.672 35.126 41.004C35.126 39.36 36.452 38 38.126 38Z" fill="#0277BD"/>
<path d="M46.156 106C49.266 105.99 51.422 105.716 54.028 105.266C61.724 103.926 63.126 101.112 63.126 95.926V88H45.126V84H63.812H72.512C77.784 84 82.398 81.516 83.86 75.562C85.512 68.728 85.586 64.448 83.86 57.312C82.548 51.99 79.662 48 74.388 48H67.124V58.208C67.124 64.14 61.752 70 55.596 70H41.124C36.078 70 31.124 73.724 31.124 78.754V95.926C31.124 100.804 34.642 104.452 39.56 105.27C39.438 105.282 43.072 106.012 46.156 106ZM56.126 98C54.484 98 53.126 96.646 53.126 94.996C53.126 93.33 54.484 92 56.126 92C57.8 92 59.126 93.328 59.126 94.996C59.126 96.64 57.798 98 56.126 98Z" fill="#FFC107"/>
</svg>
