<svg width="96" height="116" viewBox="0 0 96 116" fill="none" xmlns="http://www.w3.org/2000/svg">
<path d="M68.352 28.498C68.728 28.682 79.728 33.93 85.1 36.494C86.874 37.34 88 39.128 88 41.092V94.812C88 96.774 86.882 98.56 85.114 99.41C80.018 101.866 69.892 106.742 69.218 107.062C68.722 107.298 67.418 108 66.362 108C65.006 108 64.096 107.368 63.202 106.54L68 91.422V31.43L63.492 29.16C64.456 28.218 65.792 28 66.582 28C67.306 28 67.896 28.276 68.352 28.498Z" fill="url(#paint0_linear_99_201)"/>
<path d="M18 87.792L68 49.746V31.66C68 29.062 64.676 28.044 63.326 29.292C62.016 30.5 9.31596 78.478 9.31596 78.478C7.51596 80.138 7.61796 83.012 9.52996 84.542C9.52996 84.542 12.178 87.006 13.136 87.69C14.608 88.74 16.542 88.86 18 87.792Z" fill="url(#paint1_linear_99_201)"/>
<path d="M18 48.208L68 86.316V103.858C68 106.254 65.16 108.244 63.202 106.54L9.31596 57.522C7.51596 55.862 7.61796 52.988 9.52996 51.458C9.52996 51.458 12.178 48.994 13.136 48.31C14.608 47.26 16.542 47.14 18 48.208Z" fill="#0288D1"/>
<defs>
<linearGradient id="paint0_linear_99_201" x1="75.6" y1="106.74" x2="75.6" y2="34.84" gradientUnits="userSpaceOnUse">
<stop stop-color="#29B6F6"/>
<stop offset="1" stop-color="#13B2F6"/>
</linearGradient>
<linearGradient id="paint1_linear_99_201" x1="12.17" y1="89.602" x2="69.586" y2="34.346" gradientUnits="userSpaceOnUse">
<stop offset="0.115" stop-color="#0076BB"/>
<stop offset="0.257" stop-color="#0069B0"/>
<stop offset="0.28" stop-color="#0069B0"/>
<stop offset="0.424" stop-color="#0069B0"/>
<stop offset="0.491" stop-color="#0072B7"/>
<stop offset="0.577" stop-color="#0076BB"/>
<stop offset="0.795" stop-color="#0076BB"/>
<stop offset="1" stop-color="#006EB9"/>
</linearGradient>
</defs>
</svg>
